<?xml version="1.0" encoding="UTF-8" standalone="no"?>
<!DOCTYPE svg PUBLIC "-//W3C//DTD SVG 1.1//EN" "http://www.w3.org/Graphics/SVG/1.1/DTD/svg11.dtd">
<svg version="1.1" xmlns="http://www.w3.org/2000/svg" xmlns:xlink="http://www.w3.org/1999/xlink" preserveAspectRatio="xMidYMid meet" viewBox="0 0 640 640" width="640" height="640"><defs><path d="M223.74 82.2L223.74 451.52L227.49 455.25L398.92 353.92L227.49 69.47L223.74 82.2Z" id="a2JIt7MFGd"></path><path d="M309.05 132.32L309.05 501.63L312.8 505.37L484.23 404.04L312.8 119.59L309.05 132.32Z" id="d1itrb4K7d"></path><path d="M392.83 182.44L392.83 551.75L396.57 555.49L568 454.16L396.57 169.71L392.83 182.44Z" id="a5t1dHFCq"></path><path d="M56 353.92L227.44 455.25L227.44 276L227.44 69.47L56 353.92Z" id="d37SUiyBX"></path><path d="M227.44 455.25L227.44 276L56.01 353.92L227.44 455.25Z" id="a1D0lAObSX"></path><path d="M141.71 404.04L313.14 505.37L313.14 326.12L313.14 119.59L141.71 404.04Z" id="c123ODmAsj"></path><path d="M313.14 505.37L313.14 326.12L141.71 404.04L313.14 505.37Z" id="exBeKAwrT"></path><path d="M225.21 454.16L396.64 555.49L396.64 376.24L396.64 169.71L225.21 454.16Z" id="a11j9TJurl"></path><path d="M396.64 555.49L396.64 376.24L225.21 454.16L396.64 555.49Z" id="b1dNMX2uUl"></path><path d="M568 454.16L396.57 376.24L396.57 555.49L568 454.16Z" id="b7yTof62SE"></path></defs><g><g><g><g><use xlink:href="#a2JIt7MFGd" opacity="1" fill="#bdae93" fill-opacity="1"></use></g><g><use xlink:href="#d1itrb4K7d" opacity="1" fill="#d5c4a1" fill-opacity="1"></use></g><g><use xlink:href="#a5t1dHFCq" opacity="1" fill="#ebdbb2" fill-opacity="1"></use></g><g><use xlink:href="#d37SUiyBX" opacity="1" fill="#32302f" fill-opacity="1"></use></g><g><use xlink:href="#a1D0lAObSX" opacity="1" fill="#7c6f64" fill-opacity="1"></use></g><g><use xlink:href="#c123ODmAsj" opacity="1" fill="#32302f" fill-opacity="1"></use></g><g><use xlink:href="#exBeKAwrT" opacity="1" fill="#665c54" fill-opacity="1"></use></g><g><use xlink:href="#a11j9TJurl" opacity="1" fill="#32302f" fill-opacity="1"></use></g><g><use xlink:href="#b1dNMX2uUl" opacity="1" fill="#504945" fill-opacity="1"></use></g><g><use xlink:href="#b7yTof62SE" opacity="1" fill="#3c3836" fill-opacity="1"></use><g><use xlink:href="#b7yTof62SE" opacity="1" fill-opacity="0" stroke="#000000" stroke-width="1" stroke-opacity="0"></use></g></g></g></g></g></svg>